<svg width="25" height="20" viewBox="0 0 25 20" fill="none" xmlns="http://www.w3.org/2000/svg">
<path d="M6.55543 15.7092C5.37053 15.7092 4.41003 16.6698 4.41003 17.8546C4.41003 19.0395 5.37058 20 6.55543 20C7.74033 20 8.70083 19.0395 8.70083 17.8546C8.70087 16.6698 7.74033 15.7092 6.55543 15.7092ZM6.55543 19.0465C5.89717 19.0465 5.36355 18.5129 5.36355 17.8547C5.36355 17.1964 5.89717 16.6628 6.55543 16.6628C7.2137 16.6628 7.74731 17.1964 7.74731 17.8547C7.74735 18.5129 7.2137 19.0465 6.55543 19.0465Z" fill="#181D19"/>
<path d="M15.6139 15.7092C14.429 15.7092 13.4685 16.6698 13.4685 17.8546C13.4685 19.0395 14.4291 20 15.6139 20C16.7988 20 17.7593 19.0395 17.7593 17.8546C17.7593 16.6698 16.7988 15.7092 15.6139 15.7092ZM15.6139 19.0465C14.9556 19.0465 14.422 18.5129 14.422 17.8547C14.422 17.1964 14.9556 16.6628 15.6139 16.6628C16.2722 16.6628 16.8058 17.1964 16.8058 17.8547C16.8058 18.5129 16.2722 19.0465 15.6139 19.0465Z" fill="#181D19"/>
<path d="M20.4529 3.19432C20.3537 3.08587 20.2178 3.01797 20.0715 3.0036L4.55306 2.78906L4.12398 1.47796C3.8217 0.601505 3.00095 0.00980987 2.0739 0H0.47676C0.213445 0 0 0.213445 0 0.47676C0 0.740075 0.213445 0.95352 0.47676 0.95352H2.0739C2.59227 0.964972 3.04873 1.29782 3.21814 1.78786L6.24556 10.9178L6.0072 11.4661C5.74133 12.1516 5.82118 12.9233 6.22174 13.5399C6.61847 14.1456 7.28591 14.5194 8.0096 14.5411H17.2826C17.5459 14.5411 17.7593 14.3277 17.7593 14.0644C17.7593 13.8011 17.5459 13.5876 17.2826 13.5876H8.00955C7.60087 13.5774 7.22467 13.3624 7.00835 13.0155C6.79445 12.6728 6.75051 12.2507 6.88918 11.8713L7.0799 11.4422L17.1157 10.3933C18.218 10.2719 19.1248 9.47013 19.3803 8.39091L20.5245 3.59949C20.5761 3.46152 20.5487 3.30634 20.4529 3.19432ZM18.4506 8.17641C18.2958 8.87113 17.706 9.38358 16.9965 9.43983L7.0799 10.4649L4.86296 3.74258L19.4756 3.95712L18.4506 8.17641Z" fill="#181D19"/>
<circle cx="21" cy="4" r="4" fill="#DC2825"/>
</svg>
